<svg xmlns="http://www.w3.org/2000/svg" xmlns:xlink="http://www.w3.org/1999/xlink" viewBox="0 0 249.68 231.88"><defs><style>.cls-1{isolation:isolate;}.cls-2{fill:url(#linear-gradient);}.cls-3{fill:url(#linear-gradient-2);}.cls-4{fill:url(#linear-gradient-3);}.cls-5{opacity:0.2;mix-blend-mode:color-dodge;fill:url(#linear-gradient-4);}.cls-6{fill:url(#linear-gradient-5);}</style><linearGradient id="linear-gradient" x1="3.16" y1="130.8" x2="216.98" y2="130.8" gradientUnits="userSpaceOnUse"><stop offset="0" stop-color="#2375be"/><stop offset="0.61" stop-color="#3846bb"/><stop offset="1" stop-color="#4727b9"/></linearGradient><linearGradient id="linear-gradient-2" x1="32.28" y1="95.54" x2="172.59" y2="95.54" gradientUnits="userSpaceOnUse"><stop offset="0" stop-color="#2375be"/><stop offset="1" stop-color="#4727b9"/></linearGradient><linearGradient id="linear-gradient-3" x1="117.67" y1="109.98" x2="252.84" y2="109.98" xlink:href="#linear-gradient-2"/><linearGradient id="linear-gradient-4" x1="138.81" y1="137.68" x2="241.64" y2="95.6" gradientUnits="userSpaceOnUse"><stop offset="0" stop-color="#3799f0"/><stop offset="1" stop-color="#7357db"/></linearGradient><linearGradient id="linear-gradient-5" x1="21.03" y1="145.49" x2="208.02" y2="145.49" xlink:href="#linear-gradient-2"/></defs><title>logo</title><g class="cls-1"><g id="OBJECTS"><path class="cls-2" d="M21.88,169.61l71.05,73.94a10.62,10.62,0,0,0,15.19,0l61.71-62.94,1.85-2,25.6-26s-54.44,31.92-55.35,32.43l-.05,0A83.78,83.78,0,1,1,100.52,28.45a72.62,72.62,0,0,1,9.35.25A83.47,83.47,0,0,1,182.22,96L217,80.17l-22.22,7.58a97.38,97.38,0,0,0-94.24-72.89h-.3a96.47,96.47,0,0,0-71.58,31.7l-.3.33c-.82.91-1.62,1.84-2.4,2.78l-.69.8c-.25.31-.49.63-.74,1a96.89,96.89,0,0,0-21.35,60.8c0,26.66,11.77,50.64,29.12,68.22" transform="translate(-3.16 -14.86)"/><path class="cls-3" d="M172.59,106.66a68.59,68.59,0,0,1-12.3,39.27c-.39,0-.77,0-1.16,0-13.07.43-18.62,8.12-18.62,8.12-2.48-9.62-11.95-19.83-30.16-22.41-15-2.12-26.62,6.7-26.62,6.7,2.5-12-4-34.1-24.12-41.85a46.83,46.83,0,0,0-27.33-1.64C38,62,67,37,101.93,37,141,37,172.59,68.21,172.59,106.66Z" transform="translate(-3.16 -14.86)"/><path class="cls-4" d="M252.65,91.54c-.82,2.8-4.81,6.45-15.9,10.84-3.74,1.47-12.6,4.76-23.43,8.75l-23,21.25-3.07,1.27,5.89-13.88,10-4.91c-4.58,1.68-50.83,18.5-56.87,20.68a6.6,6.6,0,0,1-3.55.3l-24.22-4.45a.62.62,0,0,1-.48-.68l0-.31.09-.64a.59.59,0,0,1,.6-.51l10.12.27-11-10.73a.4.4,0,0,1,.14-.67l4.92-1.73a2.49,2.49,0,0,1,1.55,0c2.75.86,12.17,3.82,19.63,6.42,1.22.12,10.87-4.41,23.32-10.42l5.3,1-35.59-12a.25.25,0,0,1,0-.47l4.05-1.73a1.58,1.58,0,0,1,.68-.12l47.34,2.8c14.6-7,29.07-13.49,36.62-16.38,5-1.9,8.2-1.71,12.9-.93,4.29,0,9.31.67,11.47,1.63A4.52,4.52,0,0,1,252.65,91.54Z" transform="translate(-3.16 -14.86)"/><path class="cls-5" d="M252.65,91.54c-.82,2.8-4.81,6.45-15.9,10.84-3.74,1.47-12.6,4.76-23.43,8.75l-23,21.25-3.07,1.27,5.89-13.88,10-4.91c-4.58,1.68-50.83,18.5-56.87,20.68a6.6,6.6,0,0,1-3.55.3l-24.22-4.45a.62.62,0,0,1-.48-.68l0-.31s24.54,4.43,25.81,4.39S241.54,98,241.54,98,250.53,94.67,252.65,91.54Z" transform="translate(-3.16 -14.86)"/><path class="cls-6" d="M208,139.3l-62.93,36.18c-1.92,1.2-5.74,3.08-7.76,4.12l-.12.07A79.84,79.84,0,0,1,21,108.61a46.92,46.92,0,0,1,34.4-4.6c30.83,8.07,23.34,43.59,23.34,43.59s10.72-12.22,33.4-8.21c22.07,3.89,26,23.21,26,23.21A24,24,0,0,1,152.07,152a26.77,26.77,0,0,1,15.72.09,19.41,19.41,0,0,1,2.68,1Z" transform="translate(-3.16 -14.86)"/></g></g></svg>